# Blender v2.91.0 OBJ File: ''
# www.blender.org
mtllib arena_Collider.mtl
o Cube
v 20.746658 10.746659 -15.000000
v 25.000000 10.746659 -10.746659
v 20.746658 15.000000 -10.746659
v 20.746658 -15.000000 -10.746659
v 25.000000 -10.746659 -10.746659
v 20.746658 -10.746659 -15.000000
v 25.000000 10.746659 10.746659
v 20.746658 10.746659 15.000000
v 20.746658 15.000000 10.746659
v 25.000000 -10.746659 10.746659
v 20.746658 -15.000000 10.746659
v 20.746658 -10.746659 15.000000
v -20.746658 10.746659 -15.000000
v -20.746658 15.000000 -10.746659
v -25.000000 10.746659 -10.746659
v -25.000000 -10.746659 -10.746659
v -20.746658 -15.000000 -10.746659
v -20.746658 -10.746659 -15.000000
v -25.000000 10.746659 10.746659
v -20.746658 15.000000 10.746659
v -20.746658 10.746659 15.000000
v -20.746658 -15.000000 10.746659
v -25.000000 -10.746659 10.746659
v -20.746658 -10.746659 15.000000
v 12.447995 -10.746659 -15.000000
v 4.149332 -10.746659 -15.000000
v -4.149332 -10.746659 -15.000000
v -12.447995 -10.746659 -15.000000
v -12.447995 -15.000000 -10.746659
v -4.149332 -15.000000 -10.746659
v 4.149332 -15.000000 -10.746659
v 12.447995 -15.000000 -10.746659
v 12.447995 10.746659 15.000000
v 4.149332 10.746659 15.000000
v -4.149332 10.746659 15.000000
v -12.447995 10.746659 15.000000
v -12.447995 15.000000 10.746659
v -4.149332 15.000000 10.746659
v 4.149332 15.000000 10.746659
v 12.447995 15.000000 10.746659
v -12.447995 -10.746659 15.000000
v -4.149332 -10.746659 15.000000
v 4.149332 -10.746659 15.000000
v 12.447995 -10.746659 15.000000
v 12.447995 -15.000000 10.746659
v 4.149332 -15.000000 10.746659
v -4.149332 -15.000000 10.746659
v -12.447995 -15.000000 10.746659
v -12.447995 10.746659 -15.000000
v -4.149332 10.746659 -15.000000
v 4.149332 10.746659 -15.000000
v 12.447995 10.746659 -15.000000
v 12.447995 15.000000 -10.746659
v 4.149332 15.000000 -10.746659
v -4.149332 15.000000 -10.746659
v -12.447995 15.000000 -10.746659
v -25.000000 -10.746659 -3.582220
v -25.000000 -10.746659 3.582220
v -20.746658 -15.000000 3.582220
v -20.746658 -15.000000 -3.582220
v 25.000000 10.746659 -3.582220
v 25.000000 10.746659 3.582220
v 20.746658 15.000000 3.582220
v 20.746658 15.000000 -3.582220
v -25.000000 10.746659 3.582220
v -25.000000 10.746659 -3.582220
v -20.746658 15.000000 -3.582220
v -20.746658 15.000000 3.582220
v 25.000000 -10.746659 3.582220
v 25.000000 -10.746659 -3.582220
v 20.746658 -15.000000 -3.582220
v 20.746658 -15.000000 3.582220
v 12.447995 15.000000 3.582220
v 12.447995 15.000000 -3.582220
v 4.149332 15.000000 3.582220
v 4.149332 15.000000 -3.582220
v -4.149332 15.000000 3.582220
v -4.149332 15.000000 -3.582220
v -12.447995 15.000000 3.582220
v -12.447995 15.000000 -3.582220
v -12.447995 -15.000000 3.582220
v -12.447995 -15.000000 -3.582220
v -4.149332 -15.000000 3.582220
v -4.149332 -15.000000 -3.582220
v 4.149332 -15.000000 3.582220
v 4.149332 -15.000000 -3.582220
v 12.447995 -15.000000 3.582220
v 12.447995 -15.000000 -3.582220
v 20.746658 3.582220 -15.000000
v 20.746658 -3.582220 -15.000000
v 25.000000 -3.582220 -10.746659
v 25.000000 3.582220 -10.746659
v -25.000000 -3.582220 10.746659
v -25.000000 3.582220 10.746659
v -20.746658 3.582220 15.000000
v -20.746658 -3.582220 15.000000
v 25.000000 3.582220 10.746659
v 25.000000 -3.582220 10.746659
v 20.746658 -3.582220 15.000000
v 20.746658 3.582220 15.000000
v -25.000000 3.582220 -10.746659
v -25.000000 -3.582220 -10.746659
v -20.746658 -3.582220 -15.000000
v -20.746658 3.582220 -15.000000
v -12.447995 -3.582220 -15.000000
v -12.447995 3.582220 -15.000000
v -4.149332 -3.582220 -15.000000
v -4.149332 3.582220 -15.000000
v 4.149332 -3.582220 -15.000000
v 4.149332 3.582220 -15.000000
v 12.447995 -3.582220 -15.000000
v 12.447995 3.582220 -15.000000
v 12.447995 -3.582220 15.000000
v 12.447995 3.582220 15.000000
v 4.149332 -3.582220 15.000000
v 4.149332 3.582220 15.000000
v -4.149332 -3.582220 15.000000
v -4.149332 3.582220 15.000000
v -12.447995 -3.582220 15.000000
v -12.447995 3.582220 15.000000
v 25.000000 -3.582220 -3.582220
v 25.000000 3.582220 -3.582220
v 25.000000 -3.582220 3.582220
v 25.000000 3.582220 3.582220
v -25.000000 -3.582220 3.582220
v -25.000000 3.582220 3.582220
v -25.000000 -3.582220 -3.582220
v -25.000000 3.582220 -3.582220
vt 0.312240 0.654852
vt 0.312240 0.714556
vt 0.353733 0.714556
vt 0.353733 0.654852
vt 0.529852 0.154852
vt 0.529852 0.214555
vt 0.589556 0.214555
vt 0.589556 0.154852
vt 0.529852 0.937240
vt 0.529852 0.978733
vt 0.589556 0.978733
vt 0.589556 0.937240
vt 0.812240 0.654852
vt 0.812240 0.714556
vt 0.853733 0.714556
vt 0.853733 0.654852
vt 0.529852 0.654852
vt 0.529852 0.714555
vt 0.589556 0.714555
vt 0.589556 0.654852
vt 0.589556 0.478733
vt 0.589556 0.500000
vt 0.625000 0.478733
vt 0.353733 0.535444
vt 0.375000 0.535444
vt 0.353733 0.500000
vt 0.589556 0.750000
vt 0.625000 0.771267
vt 0.625000 0.771267
vt 0.375000 0.714556
vt 0.353733 0.750000
vt 0.353733 0.750000
vt 0.589556 0.271267
vt 0.625000 0.271267
vt 0.589556 0.250000
vt 0.125000 0.535444
vt 0.146267 0.500000
vt 0.146267 0.500000
vt 0.589556 0.035445
vt 0.625000 0.035444
vt 0.589556 0.000000
vt 0.146267 0.714555
vt 0.125000 0.714556
vt 0.146267 0.750000
vt 0.125000 0.654852
vt 0.146267 0.654852
vt 0.187760 0.500000
vt 0.146267 0.535444
vt 0.187760 0.535444
vt 0.470148 0.478733
vt 0.410445 0.478733
vt 0.410444 0.535444
vt 0.470148 0.535444
vt 0.529852 0.035445
vt 0.529852 0.000000
vt 0.470148 0.714556
vt 0.410445 0.714556
vt 0.410444 0.771267
vt 0.470148 0.771267
vt 0.470148 0.214555
vt 0.410445 0.214556
vt 0.410444 0.271267
vt 0.470148 0.271267
vt 0.625000 0.978733
vt 0.625000 0.937240
vt 0.646267 0.714555
vt 0.646267 0.654852
vt 0.312240 0.750000
vt 0.625000 0.214556
vt 0.625000 0.154852
vt 0.589556 0.437240
vt 0.625000 0.437240
vt 0.410444 0.595148
vt 0.353733 0.595148
vt 0.529852 0.437240
vt 0.529852 0.478733
vt 0.529852 0.271267
vt 0.529852 0.312760
vt 0.589556 0.312760
vt 0.529852 0.354253
vt 0.589556 0.354253
vt 0.529852 0.395747
vt 0.589556 0.395747
vt 0.625000 0.312760
vt 0.625000 0.354253
vt 0.625000 0.395747
vt 0.187760 0.750000
vt 0.187760 0.714555
vt 0.229253 0.750000
vt 0.229253 0.714555
vt 0.270747 0.750000
vt 0.270747 0.714556
vt 0.589556 0.771267
vt 0.589556 0.812760
vt 0.625000 0.812760
vt 0.589556 0.854253
vt 0.625000 0.854253
vt 0.589556 0.895747
vt 0.625000 0.895747
vt 0.312240 0.500000
vt 0.312240 0.535444
vt 0.270747 0.500000
vt 0.270747 0.535444
vt 0.229253 0.500000
vt 0.229253 0.535444
vt 0.687760 0.714555
vt 0.687760 0.654852
vt 0.729253 0.714555
vt 0.729253 0.654852
vt 0.770747 0.714556
vt 0.770747 0.654852
vt 0.529852 0.771267
vt 0.529852 0.812760
vt 0.529852 0.854253
vt 0.529852 0.895747
vt 0.187760 0.654852
vt 0.229253 0.654852
vt 0.270747 0.654852
vt 0.270747 0.595148
vt 0.312240 0.595148
vt 0.229253 0.595148
vt 0.187760 0.595148
vt 0.146267 0.595148
vt 0.770747 0.535444
vt 0.770747 0.595148
vt 0.812240 0.595148
vt 0.812240 0.535444
vt 0.729253 0.535444
vt 0.729253 0.595148
vt 0.687760 0.535444
vt 0.687760 0.595148
vt 0.646267 0.535444
vt 0.646267 0.595148
vt 0.410444 0.654852
vt 0.589556 0.095148
vt 0.625000 0.095148
vt 0.589556 0.535444
vt 0.589556 0.595148
vt 0.125000 0.595148
vt 0.529852 0.535444
vt 0.529852 0.595148
vt 0.853733 0.595148
vt 0.853733 0.535444
vt 0.529852 0.095148
vt 0.410444 0.095148
vt 0.410444 0.154852
vt 0.470148 0.154852
vt 0.470148 0.095148
vt 0.410444 0.035445
vt 0.470148 0.035445
vt 0.470148 0.654852
vt 0.470148 0.595148
vt 0.410445 0.895747
vt 0.410445 0.937240
vt 0.470148 0.937240
vt 0.470148 0.895747
vt 0.410445 0.854253
vt 0.470148 0.854253
vt 0.410444 0.812760
vt 0.470148 0.812760
vt 0.410445 0.395747
vt 0.410445 0.437240
vt 0.470148 0.437240
vt 0.470148 0.395747
vt 0.410445 0.354253
vt 0.470148 0.354253
vt 0.410444 0.312760
vt 0.470148 0.312760
vt 0.470148 0.000000
vt 0.410444 0.000000
vt 0.410445 0.978733
vt 0.470148 0.978733
vn 0.0000 1.0000 0.0000
vn 1.0000 0.0000 0.0000
vn 0.0000 0.0000 -1.0000
vn 0.0000 -1.0000 0.0000
vn -1.0000 0.0000 0.0000
vn -0.5774 -0.5774 0.5774
vn -0.5774 0.5774 0.5774
vn -0.5774 -0.5774 -0.5774
vn -0.5774 0.5774 -0.5774
vn 0.5774 -0.5774 0.5774
vn 0.5774 0.5774 0.5774
vn 0.5774 -0.5774 -0.5774
vn 0.5774 0.5774 -0.5774
vn 0.7071 0.7071 0.0000
vn 0.0000 0.7071 0.7071
vn -0.7071 0.0000 0.7071
vn 0.7071 0.0000 -0.7071
vn -0.7071 0.0000 -0.7071
vn 0.7071 0.0000 0.7071
vn 0.0000 -0.7071 -0.7071
vn -0.7071 -0.7071 0.0000
vn 0.0000 0.7071 -0.7071
vn 0.7071 -0.7071 0.0000
vn 0.0000 -0.7071 0.7071
vn -0.7071 0.7071 0.0000
vn 0.0000 0.0000 1.0000
usemtl Material
s off
f 87/1/1 45/2/1 11/3/1 72/4/1
f 128/5/2 101/6/2 15/7/2 66/8/2
f 120/9/3 95/10/3 21/11/3 36/12/3
f 79/13/4 37/14/4 20/15/4 68/16/4
f 124/17/5 97/18/5 7/19/5 62/20/5
f 1/21/6 2/22/6 3/23/6
f 4/24/7 5/25/7 6/26/7
f 7/27/8 8/28/8 9/29/8
f 10/30/9 11/31/9 12/32/9
f 13/33/10 14/34/10 15/35/10
f 16/36/11 17/37/11 18/38/11
f 19/39/12 20/40/12 21/41/12
f 22/42/13 23/43/13 24/44/13
f 58/45/14 23/43/14 22/42/14 59/46/14
f 28/47/15 18/38/15 17/48/15 29/49/15
f 90/50/16 6/51/16 5/52/16 91/53/16
f 94/54/17 19/39/17 21/41/17 95/55/17
f 98/56/18 10/57/18 12/58/18 99/59/18
f 102/60/19 16/61/19 18/62/19 103/63/19
f 36/12/20 21/11/20 20/64/20 37/65/20
f 62/20/21 7/19/21 9/66/21 63/67/21
f 44/68/22 12/32/22 11/3/22 45/2/22
f 66/8/23 15/7/23 14/69/23 67/70/23
f 52/71/24 1/21/24 3/23/24 53/72/24
f 70/73/25 5/52/25 4/24/25 71/74/25
f 112/75/26 89/76/26 1/21/26 52/71/26
f 104/77/26 106/78/26 49/79/26 13/33/26
f 106/78/26 108/80/26 50/81/26 49/79/26
f 108/80/26 110/82/26 51/83/26 50/81/26
f 110/82/26 112/75/26 52/71/26 51/83/26
f 13/33/24 49/79/24 56/84/24 14/34/24
f 49/79/24 50/81/24 55/85/24 56/84/24
f 50/81/24 51/83/24 54/86/24 55/85/24
f 51/83/24 52/71/24 53/72/24 54/86/24
f 24/44/22 41/87/22 48/88/22 22/42/22
f 41/87/22 42/89/22 47/90/22 48/88/22
f 42/89/22 43/91/22 46/92/22 47/90/22
f 43/91/22 44/68/22 45/2/22 46/92/22
f 8/93/20 33/94/20 40/95/20 9/29/20
f 33/94/20 34/96/20 39/97/20 40/95/20
f 34/96/20 35/98/20 38/99/20 39/97/20
f 35/98/20 36/12/20 37/65/20 38/99/20
f 6/26/15 25/100/15 32/101/15 4/24/15
f 25/100/15 26/102/15 31/103/15 32/101/15
f 26/102/15 27/104/15 30/105/15 31/103/15
f 27/104/15 28/47/15 29/49/15 30/105/15
f 63/67/4 9/66/4 40/106/4 73/107/4
f 73/107/4 40/106/4 39/108/4 75/109/4
f 75/109/4 39/108/4 38/110/4 77/111/4
f 77/111/4 38/110/4 37/14/4 79/13/4
f 100/112/3 114/113/3 33/94/3 8/93/3
f 114/113/3 116/114/3 34/96/3 33/94/3
f 116/114/3 118/115/3 35/98/3 34/96/3
f 118/115/3 120/9/3 36/12/3 35/98/3
f 59/46/1 22/42/1 48/88/1 81/116/1
f 81/116/1 48/88/1 47/90/1 83/117/1
f 83/117/1 47/90/1 46/92/1 85/118/1
f 85/118/1 46/92/1 45/2/1 87/1/1
f 31/103/1 86/119/1 88/120/1 32/101/1
f 86/119/1 85/118/1 87/1/1 88/120/1
f 30/105/1 84/121/1 86/119/1 31/103/1
f 84/121/1 83/117/1 85/118/1 86/119/1
f 29/49/1 82/122/1 84/121/1 30/105/1
f 82/122/1 81/116/1 83/117/1 84/121/1
f 17/48/1 60/123/1 82/122/1 29/49/1
f 60/123/1 59/46/1 81/116/1 82/122/1
f 55/124/4 78/125/4 80/126/4 56/127/4
f 78/125/4 77/111/4 79/13/4 80/126/4
f 54/128/4 76/129/4 78/125/4 55/124/4
f 76/129/4 75/109/4 77/111/4 78/125/4
f 53/130/4 74/131/4 76/129/4 54/128/4
f 74/131/4 73/107/4 75/109/4 76/129/4
f 3/132/4 64/133/4 74/131/4 53/130/4
f 64/133/4 63/67/4 73/107/4 74/131/4
f 10/57/25 69/134/25 72/4/25 11/3/25
f 69/134/25 70/73/25 71/74/25 72/4/25
f 19/39/23 65/135/23 68/136/23 20/40/23
f 65/135/23 66/8/23 67/70/23 68/136/23
f 2/137/21 61/138/21 64/133/21 3/132/21
f 61/138/21 62/20/21 63/67/21 64/133/21
f 16/36/14 57/139/14 60/123/14 17/48/14
f 57/139/14 58/45/14 59/46/14 60/123/14
f 92/140/5 122/141/5 61/138/5 2/137/5
f 122/141/5 124/17/5 62/20/5 61/138/5
f 56/127/4 80/126/4 67/142/4 14/143/4
f 80/126/4 79/13/4 68/16/4 67/142/4
f 94/54/2 126/144/2 65/135/2 19/39/2
f 126/144/2 128/5/2 66/8/2 65/135/2
f 32/101/1 88/120/1 71/74/1 4/24/1
f 88/120/1 87/1/1 72/4/1 71/74/1
f 58/145/2 57/146/2 127/147/2 125/148/2
f 125/148/2 127/147/2 128/5/2 126/144/2
f 23/149/2 58/145/2 125/148/2 93/150/2
f 93/150/2 125/148/2 126/144/2 94/54/2
f 70/73/5 69/134/5 123/151/5 121/152/5
f 121/152/5 123/151/5 124/17/5 122/141/5
f 5/52/5 70/73/5 121/152/5 91/53/5
f 91/53/5 121/152/5 122/141/5 92/140/5
f 42/153/3 41/154/3 119/155/3 117/156/3
f 117/156/3 119/155/3 120/9/3 118/115/3
f 43/157/3 42/153/3 117/156/3 115/158/3
f 115/158/3 117/156/3 118/115/3 116/114/3
f 44/159/3 43/157/3 115/158/3 113/160/3
f 113/160/3 115/158/3 116/114/3 114/113/3
f 12/58/3 44/159/3 113/160/3 99/59/3
f 99/59/3 113/160/3 114/113/3 100/112/3
f 26/161/26 25/162/26 111/163/26 109/164/26
f 109/164/26 111/163/26 112/75/26 110/82/26
f 27/165/26 26/161/26 109/164/26 107/166/26
f 107/166/26 109/164/26 110/82/26 108/80/26
f 28/167/26 27/165/26 107/166/26 105/168/26
f 105/168/26 107/166/26 108/80/26 106/78/26
f 18/62/26 28/167/26 105/168/26 103/63/26
f 103/63/26 105/168/26 106/78/26 104/77/26
f 25/162/26 6/51/26 90/50/26 111/163/26
f 111/163/26 90/50/26 89/76/26 112/75/26
f 15/7/19 101/6/19 104/77/19 13/33/19
f 101/6/19 102/60/19 103/63/19 104/77/19
f 7/19/18 97/18/18 100/112/18 8/93/18
f 97/18/18 98/56/18 99/59/18 100/112/18
f 23/149/17 93/150/17 96/169/17 24/170/17
f 93/150/17 94/54/17 95/55/17 96/169/17
f 1/21/16 89/76/16 92/140/16 2/137/16
f 89/76/16 90/50/16 91/53/16 92/140/16
f 69/134/5 10/57/5 98/56/5 123/151/5
f 123/151/5 98/56/5 97/18/5 124/17/5
f 41/154/3 24/171/3 96/172/3 119/155/3
f 119/155/3 96/172/3 95/10/3 120/9/3
f 57/146/2 16/61/2 102/60/2 127/147/2
f 127/147/2 102/60/2 101/6/2 128/5/2
