# Blender v2.91.0 OBJ File: 'goal.blend'
# www.blender.org
mtllib goal.mtl
o Cube
v 9.050948 5.747969 0.500000
v 8.586396 5.271937 -0.500000
v -9.050948 5.747969 0.500000
v -8.586396 5.271937 -0.500000
v 9.050948 -5.747969 0.500000
v 8.586396 -5.271937 -0.500000
v -9.050948 -5.747969 0.500000
v -8.586396 -5.271937 -0.500000
v 9.772239 6.385590 0.500000
v 9.213057 5.817334 -0.500000
v -9.772239 6.385590 0.500000
v -9.213057 5.817334 -0.500000
v 9.772239 -6.385590 0.500000
v 9.213057 -5.817334 -0.500000
v -9.772239 -6.385590 0.500000
v -9.213057 -5.817334 -0.500000
vt 0.000000 0.000000
vt 0.000000 0.000000
vt 0.000000 1.000000
vt 0.000000 1.000000
vt 1.000000 0.000000
vt 1.000000 0.000000
vt 1.000000 1.000000
vt 1.000000 1.000000
vt 1.000000 0.000000
vt 1.000000 0.000000
vt 1.000000 1.000000
vt 1.000000 1.000000
vt 0.000000 1.000000
vt 0.000000 1.000000
vt 0.000000 0.000000
vt 0.000000 0.000000
vn 0.0000 0.0000 -1.0000
vn -0.0000 0.0000 1.0000
vn 0.0000 0.8694 -0.4941
vn 0.8728 0.0000 -0.4881
vn 0.0000 -0.8694 -0.4941
vn -0.8728 0.0000 -0.4881
vn -0.9069 0.0000 0.4213
vn 0.0000 -0.9029 0.4298
vn 0.9069 0.0000 0.4213
vn 0.0000 0.9029 0.4298
usemtl Material
s off
f 8/1/1 16/2/1 12/3/1 4/4/1
f 6/5/1 14/6/1 16/2/1 8/1/1
f 2/7/1 10/8/1 14/6/1 6/5/1
f 5/9/2 13/10/2 9/11/2 1/12/2
f 3/13/2 11/14/2 15/15/2 7/16/2
f 4/4/1 12/3/1 10/8/1 2/7/1
f 1/12/2 9/11/2 11/14/2 3/13/2
f 7/16/2 15/15/2 13/10/2 5/9/2
f 11/14/3 9/11/3 10/8/3 12/3/3
f 9/11/4 13/10/4 14/6/4 10/8/4
f 13/10/5 15/15/5 16/2/5 14/6/5
f 15/15/6 11/14/6 12/3/6 16/2/6
f 1/12/7 2/7/7 6/5/7 5/9/7
f 3/13/8 4/4/8 2/7/8 1/12/8
f 7/16/9 8/1/9 4/4/9 3/13/9
f 5/9/10 6/5/10 8/1/10 7/16/10
